<svg id="Capa_1" enable-background="new 0 0 512 512" height="512" viewBox="0 0 512 512" width="512" xmlns="http://www.w3.org/2000/svg"><g><g><path d="m277.079 229.588c-53.952-53.952-113.346-82.033-132.659-62.719-.006.006-.012.013-.018.02-4.014 2.132-7.436 5.542-9.56 10.122l-122.28 281.991c-4.829 10.413-2.643 22.734 5.474 30.851s20.438 10.303 30.851 5.474l282.602-121.671c7.646-3.545 12.046-10.699 12.638-18.209 9.222-24.114-18.386-77.197-67.048-125.859z" fill="#f6e06e"/><path d="m253.449 347.002-207.739 89.439c-7.342 3.404-15.965 2.054-21.923-3.325l-11.225 25.886c-4.829 10.413-2.643 22.734 5.474 30.851s20.438 10.303 30.851 5.474l279.892-120.504c-6.45-2.584-74.282-28.307-75.33-27.821z" fill="#dda86a"/><ellipse cx="222.077" cy="268.587" fill="#dda86a" rx="32.441" ry="97.263" transform="matrix(.707 -.707 .707 .707 -124.875 235.699)"/><path d="m214.95 223.316c-2.358-2.358-4.177-5.32-5.188-8.743l-9.289-31.441c-3.508-11.873-.343-24.594 8.261-33.198l16.886-16.886c8.604-8.604 21.326-11.77 33.2-8.261l33.822 9.546-11.407-40.698c-3.232-10.94 3.017-22.429 13.957-25.662 10.94-3.232 22.428 3.017 25.662 13.957l9.289 31.441c3.508 11.875.342 24.595-8.261 33.198l-16.886 16.886c-8.604 8.604-21.325 11.769-33.198 8.261l-34.168-11.142 11.751 42.294c3.232 10.94-3.017 22.429-13.957 25.661-7.518 2.222-15.295-.034-20.474-5.213z" fill="#c2b2eb"/><path d="m293.492 137.739-4.411-4.411-30.26-8.54c-10.205-3.016-21.034-1.097-29.34 4.964 2.326 9.299 5.057 18.49 7.921 27.645l4.607 4.607 29.788 9.714c10.69 3.158 22.064.905 30.505-5.853-2.991-9.361-5.966-18.724-8.81-28.126z" fill="#9781dd"/><path d="m345.762 208.614c2.358 2.358 5.32 4.177 8.743 5.188l31.441 9.288c11.873 3.508 24.594.343 33.198-8.261l16.886-16.886c8.604-8.604 11.77-21.326 8.261-33.2l-9.546-33.822 40.698 11.407c10.941 3.232 22.429-3.017 25.662-13.957 3.232-10.94-3.017-22.429-13.957-25.662l-31.441-9.289c-11.875-3.508-24.595-.342-33.199 8.261l-16.886 16.886c-8.604 8.604-11.769 21.325-8.261 33.199l11.142 34.168-42.294-11.751c-10.94-3.232-22.429 3.017-25.661 13.957-2.22 7.518.036 15.296 5.214 20.474z" fill="#e8c2d8"/><path d="m444.291 164.744-8.24-29.194-5.23-5.23c-9.84-2.12-19.683-4.232-29.504-6.435-5.259 8.091-6.798 18.264-3.956 27.882l9.714 29.788 2.357 2.358c10.186 2.515 20.036 6.272 29.817 10.277 6.123-8.319 8.071-19.197 5.042-29.446z" fill="#d789b9"/><circle cx="381.992" cy="26.9" fill="#e8a284" r="16.772"/><ellipse cx="419.16" cy="300.618" fill="#a1e8c3" rx="16.772" ry="16.772" transform="matrix(.851 -.526 .526 .851 -95.443 265.262)"/><circle cx="315.551" cy="303.664" fill="#96b4eb" r="16.772"/><path d="m207.125 10.639 8.251 23.202c.353.993 1.053 1.781 1.935 2.178l20.614 9.287c2.912 1.312 2.912 5.952 0 7.264l-20.614 9.287c-.883.398-1.582 1.185-1.935 2.178l-8.251 23.202c-1.166 3.278-5.288 3.278-6.454 0l-8.251-23.202c-.353-.993-1.053-1.781-1.935-2.178l-20.614-9.287c-2.912-1.312-2.912-5.952 0-7.264l20.614-9.287c.883-.398 1.582-1.185 1.935-2.178l8.251-23.202c1.166-3.277 5.288-3.277 6.454 0z" fill="#e8c2d8"/><path d="m486.656 219.223 6.121 17.211c.262.737.781 1.321 1.436 1.616l15.291 6.889c2.16.973 2.16 4.415 0 5.389l-15.291 6.889c-.655.295-1.173.879-1.436 1.616l-6.121 17.211c-.865 2.431-3.923 2.431-4.788 0l-6.121-17.211c-.262-.737-.781-1.321-1.435-1.616l-15.291-6.889c-2.16-.973-2.16-4.415 0-5.389l15.291-6.889c.655-.295 1.173-.879 1.435-1.616l6.121-17.211c.865-2.432 3.923-2.432 4.788 0z" fill="#c2b2eb"/><circle cx="372.851" cy="81.846" fill="#a1e8c3" r="7.772"/><ellipse cx="476.347" cy="32.23" fill="#96b4eb" rx="14.347" ry="14.347" transform="matrix(.071 -.998 .998 .071 410.43 505.094)"/></g><g><g fill="#3c122c"><path d="m344.995 304.614c-12.327-26.072-33.924-55.239-60.812-82.129-8.298-8.298-16.814-16.087-25.388-23.258l-6.473-23.296 16.361 5.335c.089.029.179.057.269.083 15.404 4.552 31.939.418 43.147-10.791l16.886-16.886c11.208-11.208 15.342-27.741 10.791-43.147l-9.288-31.442c-4.798-16.234-21.905-25.542-38.142-20.744-16.21 4.789-25.511 21.855-20.765 38.068l6.558 23.395-16.533-4.667c-15.391-4.526-31.893-.384-43.087 10.809l-16.885 16.885c-4.208 4.208-7.419 9.168-9.548 14.536-29.551-11.572-45.413-6.14-53.764 1.447-5.429 3.252-9.859 8.077-12.592 13.971-.035.076-.07.153-.103.229l-122.236 281.888c-6.501 14.153-3.478 31.037 7.541 42.055 7.149 7.15 16.766 10.934 26.507 10.933 5.267 0 10.573-1.108 15.54-3.386l282.483-121.618c.085-.036.17-.075.254-.113 9.47-4.392 16.212-13.151 18.036-23.429.081-.455.131-.91.192-1.366 3.752-10.848 3.225-27.613-8.949-53.362zm-29.445-11.69c2.752 0 5.503 1.048 7.599 3.142 4.189 4.19 4.189 11.007 0 15.195-4.19 4.189-11.006 4.189-15.196.001-4.189-4.19-4.189-11.007 0-15.196 2.095-2.094 4.847-3.142 7.597-3.142zm-17.511-215.318c5.606-1.657 11.522 1.559 13.182 7.17l9.288 31.441c2.464 8.342.268 17.25-5.731 23.249l-7.653 7.653-4.804-15.466c-.003-.01-.003-.02-.006-.03l-11.407-40.698c-.013-.046-.025-.09-.039-.135-1.658-5.612 1.559-11.526 7.17-13.184zm-42.065 56.815c.039.012.079.023.119.034l28.567 8.063 5.829 18.766c-4.867 2.018-10.406 2.376-15.723.834l-29.136-9.501-5.374-17.46c2.796-1.139 5.811-1.73 8.876-1.73 2.276 0 4.58.325 6.842.994zm-40.135 22.616 7.747-7.747 4.918 15.978c.007.022.016.042.023.064l11.177 40.225c.015.053.029.105.045.158.802 2.717.499 5.585-.855 8.074-1.354 2.49-3.596 4.303-6.314 5.107-3.738 1.101-7.767.074-10.525-2.684-1.254-1.254-2.148-2.763-2.658-4.486l-9.289-31.441c-2.465-8.34-.269-17.249 5.731-23.248zm-64.316 16.935c1.916-1.916 5.374-3.182 10.499-3.182 6.401 0 15.413 1.987 27.247 7.144.276 2.693.786 5.385 1.571 8.044l9.289 31.44c1.449 4.905 4.117 9.401 7.717 13.001 5.852 5.85 13.69 9.004 21.72 9.004 2.905 0 5.835-.413 8.703-1.261 7.737-2.285 14.137-7.405 18.074-14.43 4.584 4.146 9.139 8.464 13.633 12.958 14.814 14.813 27.851 30.264 38.412 45.356-3.276 1.079-6.359 2.896-8.959 5.496-8.889 8.889-8.889 23.353 0 32.242 4.445 4.444 10.283 6.666 16.12 6.666 5.245 0 10.479-1.808 14.714-5.394 7.623 19.048 6.487 30.031 2.431 34.087-4.583 4.585-18.01 5.452-41.943-5.863-24.039-11.366-51.21-31.557-76.509-56.856-25.299-25.298-45.491-52.47-56.856-76.51-11.315-23.931-10.447-37.358-5.863-41.942zm-106.608 312.129c-.085.036-.17.075-.254.113-6.566 3.044-14.408 1.65-19.522-3.463v-.001c-5.115-5.114-6.507-12.96-3.464-19.521.035-.077.07-.153.103-.23l110.686-255.257c1.673 5.116 3.887 10.684 6.76 16.761 12.327 26.072 33.924 55.239 60.812 82.129 26.889 26.888 56.057 48.485 82.129 60.812 7.455 3.525 14.157 6.073 20.181 7.824z"/><path d="m489.995 93.078-31.441-9.289c-15.407-4.552-31.939-.416-43.148 10.792l-16.885 16.885c-11.208 11.209-15.343 27.742-10.792 43.148.026.09.054.18.083.269l5.334 16.36-24.175-6.717c-16.212-4.738-33.27 4.562-38.057 20.769-3.19 10.798-.223 22.455 7.744 30.423 3.601 3.6 8.096 6.269 13.001 7.718l31.44 9.288c4.141 1.224 8.361 1.82 12.539 1.82 11.367 0 22.413-4.414 30.609-12.61l16.886-16.886c11.192-11.193 15.331-27.697 10.809-43.085l-4.667-16.534 23.393 6.557c7.845 2.298 16.113 1.413 23.295-2.494 7.203-3.919 12.45-10.408 14.773-18.271 4.799-16.235-4.506-33.345-20.741-38.143zm-63.434 45.828 8.063 28.567c.011.039.023.078.034.118 1.568 5.309 1.242 10.845-.744 15.717l-17.454-5.372-9.501-29.137c-1.541-5.318-1.183-10.856.835-15.722zm-37.769 74.551-31.44-9.288c-1.723-.509-3.232-1.404-4.487-2.658-2.758-2.758-3.786-6.791-2.684-10.524 1.363-4.612 5.599-7.605 10.181-7.605.993 0 2.002.14 3.002.436.052.016.104.03.157.045l40.221 11.175c.023.007.044.018.067.025l15.978 4.918-7.747 7.747c-5.998 5.999-14.91 8.19-23.248 5.729zm102.68-87.931c-.803 2.718-2.617 4.961-5.107 6.314-2.488 1.355-5.356 1.658-8.074.855-.045-.014-.09-.026-.135-.039l-40.698-11.407c-.009-.002-.018-.003-.027-.006l-15.47-4.805 7.653-7.653c5.999-5.999 14.906-8.195 23.25-5.731l31.44 9.289c5.61 1.66 8.825 7.573 7.168 13.183z"/><path d="m381.992 49.688c5.838 0 11.676-2.223 16.12-6.668 8.889-8.889 8.889-23.353 0-32.242-8.889-8.891-23.355-8.889-32.242 0-8.889 8.889-8.889 23.353 0 32.242 4.445 4.446 10.284 6.668 16.122 6.668zm-7.598-30.386c2.095-2.094 4.847-3.142 7.598-3.142 2.752 0 5.503 1.048 7.599 3.142 4.189 4.19 4.189 11.006 0 15.196-4.189 4.189-11.004 4.19-15.196 0-4.19-4.19-4.19-11.006-.001-15.196z"/><path d="m403.039 284.497c-8.889 8.888-8.889 23.353 0 32.241 4.444 4.445 10.283 6.668 16.12 6.668 5.839 0 11.677-2.223 16.121-6.668 8.889-8.889 8.889-23.353 0-32.241-8.886-8.889-23.353-8.891-32.241 0zm23.719 23.719c-4.192 4.19-11.006 4.188-15.196 0-4.189-4.19-4.189-11.006 0-15.196 2.095-2.094 4.847-3.142 7.598-3.142s5.502 1.048 7.598 3.142c4.189 4.189 4.189 11.006 0 15.196z"/></g><path d="m101.337 364.692c-1.325 0-2.672-.264-3.968-.822-5.095-2.193-7.448-8.103-5.253-13.199l12.721-29.546c2.193-5.094 8.098-7.451 13.199-5.253 5.095 2.193 7.448 8.103 5.253 13.199l-12.721 29.546c-1.636 3.8-5.34 6.075-9.231 6.075z" fill="#fff"/><path d="m128.295 302.083c-1.325 0-2.672-.264-3.968-.822-5.095-2.194-7.448-8.103-5.253-13.199l3.878-9.006c2.193-5.094 8.1-7.451 13.199-5.253 5.095 2.193 7.448 8.103 5.253 13.199l-3.878 9.006c-1.636 3.8-5.34 6.075-9.231 6.075z" fill="#fff"/></g></g></svg>