<?xml version="1.0" encoding="iso-8859-1"?>
<!-- Generator: Adobe Illustrator 19.0.0, SVG Export Plug-In . SVG Version: 6.00 Build 0)  -->
<svg version="1.1" id="Capa_1" xmlns="http://www.w3.org/2000/svg" xmlns:xlink="http://www.w3.org/1999/xlink" x="0px" y="0px"
	 viewBox="0 0 512.001 512.001" style="enable-background:new 0 0 512.001 512.001;" xml:space="preserve">
<path style="fill:#00C3FF;" d="M0,102.727v313.152c0,7.873,5.557,14.651,13.277,16.195l138.274,27.655
	c8.901,1.78,18.119,1.081,26.65-2.021l159.944-58.16c5.687-2.068,11.833-2.534,17.767-1.347l136.333,27.267
	c10.22,2.044,19.755-5.773,19.755-16.195V96.121c0-7.873-5.557-14.651-13.277-16.195L360.449,52.27
	c-8.901-1.78-18.119-1.081-26.65,2.021l-159.944,58.16c-5.687,2.068-11.833,2.534-17.767,1.347L19.755,86.532
	C9.535,84.488,0,92.305,0,102.727z"/>
<path style="fill:#00AAF0;" d="M498.723,79.925L360.45,52.27c-4.499-0.9-9.079-1.157-13.611-0.799v346.198
	c3.021-0.238,6.074-0.067,9.073,0.533l136.333,27.267c10.22,2.044,19.755-5.773,19.755-16.195V96.12
	C512,88.248,506.443,81.469,498.723,79.925z"/>
<path style="fill:#B4E66E;" d="M498.723,79.925L360.45,52.27c-8.901-1.78-18.119-1.081-26.65,2.021l-46.807,17.021
	c-13.151,24.055-0.027,51.979,22.685,62.194c34.236,15.398,87.485,32.515,94.968,64.688c6.882,29.591-24.774,70.194,24.774,74.323
	c47.072,3.922,42.14,60.42,82.581,46.552V96.12C512,88.248,506.443,81.469,498.723,79.925z"/>
<path style="fill:#A0D755;" d="M498.723,79.925L360.45,52.27c-4.499-0.9-9.079-1.157-13.611-0.799v98.055
	c26.838,12.099,52.755,26.947,57.806,48.668c6.882,29.591-24.774,70.194,24.774,74.323c47.072,3.922,42.14,60.42,82.581,46.552
	V96.12C512,88.248,506.443,81.469,498.723,79.925z"/>
<path style="fill:#B4E66E;" d="M13.277,432.076L151.55,459.73c8.901,1.78,18.119,1.081,26.65-2.021l43.993-15.997l0.774-4.035
	c-24.774-66.065-102.291-0.547-90.839-57.806c8.258-41.29-24.774-82.581-57.806-74.323s-37.285-25.267-41.29-41.29
	C24.774,231.226,0,231.226,0,231.226V415.88C0,423.753,5.557,430.531,13.277,432.076z"/>
<path style="fill:#00AAF0;" d="M165.161,114.331c-3.021,0.238-6.074,0.067-9.073-0.533L19.755,86.532
	C9.535,84.488,0,92.305,0,102.727v313.152c0,7.873,5.557,14.651,13.277,16.196L151.55,459.73c4.499,0.9,9.079,1.157,13.611,0.799
	L165.161,114.331L165.161,114.331z"/>
<g>
	<path style="fill:#B4E66E;" d="M205.419,155.871c-19.683-6.561-57.806-8.258-74.323,16.516s0,49.548,33.032,49.548
		s41.29-16.516,49.548,0c8.258,16.516,41.29,16.516,41.29-8.258S230.194,164.129,205.419,155.871z"/>
	<path style="fill:#B4E66E;" d="M220.903,276.645c-7.834,2.611-24.774,33.032-8.258,41.29s41.29,0,41.29-16.516
		C253.935,293.161,245.677,268.387,220.903,276.645z"/>
</g>
<g>
	<path style="fill:#FFF082;" d="M232.323,381.63c-0.153,0-0.306-0.004-0.46-0.012c-6.339-0.347-12.548-1.266-18.452-2.738
		c-4.419-1.101-7.113-5.585-6.016-10.008c1.097-4.427,5.54-7.149,10.016-6.016c4.887,1.218,10.048,1.98,15.355,2.27
		c4.548,0.25,8.04,4.141,7.79,8.694C240.323,378.223,236.677,381.63,232.323,381.63z"/>
	<path style="fill:#FFF082;" d="M266.21,376.559c-3.532,0-6.806-2.286-7.895-5.839c-1.339-4.359,1.113-8.98,5.468-10.319
		c4.524-1.387,8.46-3.496,12.024-6.44c3.516-2.915,8.726-2.403,11.621,1.101c2.911,3.516,2.411,8.722-1.105,11.625
		c-5.194,4.298-11.145,7.492-17.685,9.504C267.823,376.438,267.008,376.559,266.21,376.559z"/>
	<path style="fill:#FFF082;" d="M184.798,362.747c-1.726,0-3.468-0.54-4.96-1.657c-4.685-3.524-9.306-7.649-13.75-12.258
		c-3.161-3.286-3.065-8.516,0.226-11.677c3.274-3.157,8.508-3.065,11.677,0.218c3.831,3.98,7.79,7.52,11.782,10.516
		c3.645,2.742,4.371,7.919,1.629,11.565C189.782,361.61,187.306,362.747,184.798,362.747z"/>
	<path style="fill:#FFF082;" d="M299.315,340.207c-0.935,0-1.887-0.161-2.815-0.5c-4.29-1.556-6.5-6.29-4.952-10.581
		c1.669-4.585,3.194-9.806,4.532-15.52c1.04-4.448,5.5-7.206,9.927-6.153c4.444,1.044,7.194,5.488,6.153,9.927
		c-1.508,6.427-3.169,12.113-5.081,17.383C305.855,338.118,302.694,340.207,299.315,340.207z"/>
</g>
<path style="fill:#FFDC64;" d="M151.185,324.219c-2.726,0-5.395-1.347-6.968-3.815c-3.145-4.927-6.153-9.952-9.056-14.98
	c-2.29-3.948-0.935-9,3.008-11.282c3.96-2.294,9.008-0.94,11.282,3.016c2.79,4.819,5.669,9.633,8.685,14.359
	c2.452,3.847,1.331,8.952-2.516,11.403C154.242,323.8,152.702,324.219,151.185,324.219z"/>
<path style="fill:#FFF082;" d="M309.935,289.934c-0.355,0-0.718-0.024-1.081-0.069c-4.524-0.593-7.71-4.742-7.113-9.262
	c0.726-5.565,1.403-11.226,2.073-16.94c0.532-4.532,4.629-7.77,9.169-7.234c4.524,0.532,7.766,4.637,7.234,9.169
	c-0.685,5.786-1.363,11.52-2.105,17.149C317.573,286.905,314.024,289.934,309.935,289.934z"/>
<path style="fill:#FFDC64;" d="M125.419,279.715c-2.831,0-5.589-1.46-7.129-4.077c-3.234-5.508-6.113-10.089-8.815-13.996
	c-2.589-3.754-1.645-8.895,2.105-11.488c3.758-2.601,8.903-1.649,11.492,2.109c2.927,4.242,6.024,9.153,9.46,15.012
	c2.306,3.935,0.992,8.996-2.944,11.302C128.274,279.348,126.839,279.715,125.419,279.715z"/>
<path style="fill:#FFF082;" d="M316.25,238.812c-0.387,0-0.774-0.028-1.177-0.081c-4.508-0.645-7.653-4.827-7.008-9.343
	c0.831-5.831,1.758-11.609,2.806-17.286c0.831-4.484,5.153-7.452,9.629-6.613c4.484,0.835,7.444,5.141,6.613,9.629
	c-1.016,5.452-1.895,11.004-2.694,16.601C323.831,235.84,320.298,238.812,316.25,238.812z"/>
<g>
	<path style="fill:#FFDC64;" d="M95.79,237.759c-2.395,0-4.758-1.032-6.395-3.024c-3.823-4.665-7.387-8.714-10.903-12.383
		c-3.153-3.294-3.04-8.52,0.258-11.673c3.282-3.149,8.516-3.04,11.677,0.254c3.806,3.976,7.645,8.339,11.742,13.335
		c2.887,3.524,2.379,8.73-1.153,11.621C99.484,237.147,97.629,237.759,95.79,237.759z"/>
	<path style="fill:#FFDC64;" d="M57.798,203.586c-1.347,0-2.71-0.331-3.976-1.024c-4.581-2.524-9.298-4.46-14.008-5.75
		c-4.403-1.202-6.992-5.742-5.79-10.141c1.21-4.403,5.798-7,10.145-5.786c5.968,1.629,11.895,4.056,17.621,7.21
		c3.992,2.202,5.452,7.226,3.25,11.218C63.532,202.046,60.71,203.586,57.798,203.586z"/>
</g>
<path style="fill:#FFF082;" d="M327.532,188.687c-0.919,0-1.855-0.157-2.766-0.48c-4.298-1.528-6.54-6.25-5.016-10.548
	c2.145-6.028,4.581-11.669,7.242-16.766c2.121-4.048,7.121-5.609,11.145-3.496c4.04,2.113,5.605,7.101,3.5,11.141
	c-2.315,4.419-4.435,9.351-6.323,14.653C334.113,186.574,330.927,188.687,327.532,188.687z"/>
<g>
	<path style="fill:#FFDC64;" d="M355.71,146.735c-2.492,0-4.952-1.121-6.581-3.254c-2.758-3.625-2.056-8.806,1.565-11.573
		c5.016-3.823,10.573-7.024,16.508-9.512c4.169-1.758,9.048,0.206,10.806,4.415c1.766,4.206-0.21,9.048-4.419,10.81
		c-4.645,1.952-8.976,4.448-12.879,7.423C359.21,146.183,357.452,146.735,355.71,146.735z"/>
	<path style="fill:#FFDC64;" d="M412.911,132.13c-0.153,0-0.306-0.004-0.468-0.012c-2.653-0.149-5.113-0.194-7.75-0.198
		c-0.016,0-0.032,0-0.048,0c-4.54,0-8.234-3.665-8.258-8.21c-0.024-4.56,3.645-8.278,8.21-8.306c2.766,0.008,5.75,0.056,8.766,0.222
		c4.548,0.254,8.04,4.149,7.782,8.702C420.903,128.727,417.258,132.13,412.911,132.13z"/>
	<path style="fill:#FFDC64;" d="M0,198.198c0.739-0.001,1.486-0.1,2.234-0.309c2.516-0.71,4.976-1.294,7.387-1.758
		c4.484-0.867,7.411-5.198,6.54-9.677c-0.863-4.472-5.218-7.399-9.669-6.54c-2.118,0.411-4.306,0.977-6.492,1.542
		C0,181.456,0,198.198,0,198.198z"/>
	<path style="fill:#FFDC64;" d="M474.129,123.872l10.677-10.677c3.226-3.226,3.226-8.452,0-11.677s-8.452-3.226-11.677,0
		l-10.677,10.677l-10.677-10.677c-3.226-3.226-8.452-3.226-11.677,0s-3.226,8.452,0,11.677l10.677,10.677l-10.677,10.677
		c-3.226,3.226-3.226,8.452,0,11.677c1.613,1.613,3.726,2.419,5.839,2.419s4.226-0.806,5.839-2.419l10.677-10.677l10.677,10.677
		c1.613,1.613,3.726,2.419,5.839,2.419s4.226-0.806,5.839-2.419c3.226-3.226,3.226-8.452,0-11.677L474.129,123.872z"/>
</g>
<g>
	<path style="fill:#A0D755;" d="M13.277,432.076L151.55,459.73c4.499,0.9,9.079,1.157,13.611,0.799v-55.105
		c-21.605,0.928-38.865,3.613-33.032-25.553c8.258-41.29-24.774-82.581-57.806-74.323s-37.285-25.267-41.29-41.29
		C24.774,231.226,0,231.226,0,231.226V415.88C0,423.753,5.557,430.531,13.277,432.076z"/>
	<path style="fill:#A0D755;" d="M454.194,363.355c-12.277,5.989-20.026,16.806-45.419,8.946
		c-28.903-8.946-37.161,15.828-37.849,26.839v2.065l121.32,24.264c10.22,2.044,19.755-5.773,19.755-16.195v-12.886
		C512,379.871,482.409,349.591,454.194,363.355z"/>
	<path style="fill:#A0D755;" d="M165.161,221.904V152.7c-13.371,2.114-26.182,7.864-34.065,19.687
		c-16.516,24.774,0,49.548,33.032,49.548C164.49,221.935,164.806,221.908,165.161,221.904z"/>
</g>
<g>
</g>
<g>
</g>
<g>
</g>
<g>
</g>
<g>
</g>
<g>
</g>
<g>
</g>
<g>
</g>
<g>
</g>
<g>
</g>
<g>
</g>
<g>
</g>
<g>
</g>
<g>
</g>
<g>
</g>
</svg>
