<?xml version="1.0" ?><svg id="Layer_1" style="enable-background:new 0 0 52 52;" version="1.1" viewBox="0 0 52 52" xml:space="preserve" xmlns="http://www.w3.org/2000/svg" xmlns:xlink="http://www.w3.org/1999/xlink"><style type="text/css">
	.st0{fill:#231F20;}
</style><g><g><path class="st0" d="M10.039011,34.1243401c1.0714874,1.2067223,1.75914,3.1708031,2.7251225,4.2006035    c0.2050457,0.2185936,0.209815,0.4883575,0.517005,0.6723366c1.6596069,0.9939575,4.5822783,0.5649834,6.4357996,0.6982956    c-0.3616047-0.4746895-0.7232094-0.949379-1.0848141-1.4240685c-0.4075623,1.8965034-3.5099525,2.8607597-4.3693781,4.6330414    c-1.0234947,2.1106186,0.8923645,5.1021538,1.3135357,7.268074c0.5508738-0.4234924,1.1017485-0.8469849,1.6526232-1.2704735    c-1.7304859-0.9243736-4.5451298-3.2861099-6.5544567-3.2885971c-1.9569197-0.0024261-4.4776306,2.2664185-5.9885283,3.3225632    c0.5642695,0.3238029,1.1285391,0.6476021,1.6928091,0.971405c0.1735802-2.2148399,1.7754126-4.5688095,0.988945-6.6972198    c-0.6567035-1.7772293-3.319077-3.3422928-4.6773534-4.5802269c-0.2651651,0.6401672-0.5303302,1.2803307-0.7954953,1.9204979    c1.9014313-0.0679817,5.4252138,0.53339,7.0806065-0.6573372c1.5379772-1.106266,2.1165695-4.3759155,2.7665796-6.0199699    c0.5324907-1.3468132-1.6425676-1.9312191-2.1696272-0.5981407c-0.680934,1.7222672-0.9233942,3.1037369-2.4801908,4.1550789    c-1.5875626,1.0721169-3.3245039,0.8034058-5.1973677,0.870369c-0.9254801,0.0330887-1.5469218,1.2356415-0.7954952,1.9204941    c1.2242721,1.1158028,4.0128188,2.813633,4.1256366,4.6160583c0.0896153,1.4317322-0.972805,3.4954262-1.0962377,5.0703964    c-0.0643101,0.8205757,1.016037,1.4444809,1.6928086,0.971405c1.3972878-0.9767303,3.1678567-2.5421753,4.888576-2.4855843    c1.8089485,0.059494,3.7997808,1.6058159,5.383173,2.4516144c0.904274,0.4830399,1.8394337-0.3097763,1.6526222-1.2704735    c-0.5492039-2.8243446-2.2202921-5.0925636,0.2125206-7.3178825c1.1029396-1.0088692,2.516386-1.8656311,2.8433228-3.3869514    c0.1614342-0.7511978-0.3300514-1.3697853-1.0848141-1.4240723c-1.0533905-0.0757637-3.0766888,0.0687752-4.0652666-0.2923927    c-1.1761904-0.4297066-0.1128292,0.5163193-1.1225185-0.9478836c-0.9037027-1.3105049-1.8254833-2.4627724-2.8991518-3.6719475    C10.666626,31.4483852,9.0800791,33.0443802,10.039011,34.1243401L10.039011,34.1243401z"/></g><g><path class="st0" d="M40.7140274,34.0954514c1.0501823,1.5641747,2.4980812,2.6521301,3.0769539,4.5419083    c0.1094627,0.3573608,0.4011497,0.7084541,0.7857437,0.7857437c1.7309875,0.3478737,3.4806938,0.1118584,5.2603416,0.4753075    c-0.1654739-0.62677-0.3309517-1.25354-0.4964256-1.8803101c-1.2639198,1.4430466-3.5944824,3.2088051-4.1168518,5.1345139    c-0.5649643,2.0827522,0.6527405,5.2250633,0.8447304,7.304142c0.56427-0.3237991,1.12854-0.6476021,1.6928101-0.9714012    c-1.6613045-0.9978752-3.825634-3.6360931-5.8168373-3.7650642c-0.8948936-0.0579605-1.2753029,0.3848953-1.9624748,0.7960663    c-1.7427216,1.0427551-2.0163231,2.1749725-4.4343414,2.3989067c0.3238029,0.56427,0.6476021,1.12854,0.971405,1.6928101    c0.9110985-1.6275558,2.4181442-4.1363335,2.1020203-6.0831604c-0.3916626-2.4120293-3.3188972-4.2894554-4.9634743-5.9045982    c-0.2651672,0.6401672-0.5303307,1.2803307-0.7954941,1.9204979c1.7257156-0.0181961,4.8518181,0.6525192,6.4278412-0.3080711    c1.5578613-0.9495201,2.2904892-4.067894,3.0303268-5.6258736c0.6178894-1.301178-1.3213539-2.4443054-1.9428101-1.1356201    c-0.4763184,1.0030518-1.3330765,4.1024933-2.229847,4.695694c-0.9589729,0.6343498-4.132122,0.1117096-5.285511,0.1238708    c-0.9634609,0.0101585-1.4988098,1.2297707-0.7954979,1.9204941c1.2021027,1.180584,2.9180679,2.3863449,3.6054764,3.9663658    c0.7651062,0.6578331,0.872757,1.4060974,0.3229561,2.2448006c-0.35429,1.0742073-0.8272209,2.0908661-1.4187965,3.0499802    c-0.3845367,0.686924,0.0871658,1.7747002,0.971405,1.6928101c1.8011665-0.1668091,2.962616-0.6662064,4.4809418-1.6030655    c1.489727-0.9192162,1.5259933-1.3477097,3.1191025-0.622345c1.2168083,0.5540276,2.3130379,1.7885742,3.477993,2.488308    c0.6828728,0.4101715,1.7727394-0.1058273,1.6928062-0.971405c-0.1509666-1.6348267-0.5365105-3.2784615-0.658638-4.9073868    c-0.2052498-2.737648,1.579628-4.0083466,3.2717514-5.9402771c0.5169525-0.5902176,0.3890572-1.6994743-0.4964256-1.8803101    c-0.7918777-0.1617203-1.8872795-0.4166603-2.7021103-0.4306946c-0.5978622-0.2522621-1.1152611-0.1992836-1.5522003,0.1589317    c-0.4432945,0.4235802-0.6337891,0.2037697-0.5714836-0.6594276c-0.9373589-1.0599403-2.1772499-2.6829605-2.9525795-3.8377571    C41.8538017,31.7637711,39.9038658,32.8887749,40.7140274,34.0954514L40.7140274,34.0954514z"/></g><g><path class="st0" d="M21.9759426,17.950346c3.1169682,0.0508823,10.8465748-1.0686798,13.1019459,1.780777    c1.0584297,1.3372307,1.0331306,5.1461487,0.6784515,6.7685413c0.3820343,1.2738304-0.0593643,2.1626053-1.3241882,2.6663246    c-1.087204-0.0001278-2.174408-0.0002537-3.26161-0.0003796c-2.1744061-0.0002518-4.3488121-0.0005035-6.5232182-0.0007553    c-1.3426113-0.0001564-5.4344559,0.6979637-6.5232182-0.0007572c-1.6572895-1.0635777-1.3986797-4.1340446-1.1203461-5.9235191    c0.5881386-3.7812805,1.9615746-5.0689335,5.5525494-4.8653984c1.4466553,0.081995,1.4419842-2.1682701,0-2.25    c-2.7721329-0.1571236-5.8024044,0.0729942-7.1515408,2.8872433c-1.3819971,2.8827972-1.1623487,8.3716526-0.5101767,11.4100571    c0.0835438,0.3892212,0.4246674,0.6694603,0.7857447,0.7857437c2.1907444,0.7055187,5.0447292,0.2061749,7.3361835,0.20644    c3.26161,0.0003796,6.5232182,0.0007572,9.7848263,0.0011349c4.341774,0.0005035,5.1648903,0.2168732,5.1989288-4.1397915    c0.0280991-3.5963268,1.0190735-7.7050362-2.3994026-9.9896889c-3.6250782-2.4227314-9.5968761-1.520216-13.6249294-1.5859718    C20.5275421,15.6767015,20.5271854,17.9266949,21.9759426,17.950346L21.9759426,17.950346z"/></g><g><path class="st0" d="M28.8910904,4.1955972c1.7944164,1.3441911,1.1479359,3.2418642,0.2117004,4.8717856    c-0.3727818,0.6489887-0.859066,1.565752-1.5608158,1.9121523c-1.5686474,0.7743206-2.4014473-0.6131811-2.9886684-1.6049738    c-0.8127155-1.3726444-1.7549229-3.8579769-0.7255383-5.3471732c1.4018822-2.0280852,3.7154732-0.5406349,5.1592999,0.4847102    c1.182785,0.8399639,2.3078308-1.110353,1.1356182-1.9428091c-1.3518143-0.9600025-2.8066311-2.4092598-4.6123981-2.0976355    c-1.3536587,0.2336032-3.0547504,1.4427476-3.79389,2.6163058c-1.6985245,2.696811,0.2224998,7.2102737,2.2274017,9.2392998    c2.4267006,2.4558964,5.4820042,0.6267805,6.9473858-1.857007c1.7174377-2.9110184,2.0930405-6.0019975-0.8644791-8.2174635    C28.8673935,1.3843505,27.7446232,3.3367846,28.8910904,4.1955972L28.8910904,4.1955972z"/></g></g></svg>