<svg id="Layer_1" height="512" viewBox="0 0 128 128" width="512" xmlns="http://www.w3.org/2000/svg"><g><path d="m115.088 39.482c1.455-1.749 2.144-4.03 1.881-6.316-.331-2.865-2.228-5.403-4.951-6.623-1.378-.618-2.802-.846-4.248-.679v-10.063c0-.124-.023-.243-.065-.353-.136-.391-.507-.671-.944-.671h-10.064c.036-.307.053-.612.053-.915 0-2.376-1.018-4.646-2.793-6.229-1.774-1.58-4.158-2.329-6.534-2.055-2.865.33-5.403 2.227-6.623 4.949-.617 1.378-.844 2.803-.678 4.249h-10.063c-.29 0-.55.129-.733.332-.172.18-.277.423-.277.691v2.912c-21.728 2.052-39.525 17.788-44.664 38.476h-14.046c-2.326 0-4.218 1.892-4.218 4.218 0 2.156 1.632 3.919 3.722 4.168v58.904c0 .553.448 1 1 1h47.96c.552 0 1-.447 1-1v-5.991c4.474 1.287 9.192 1.991 14.075 1.991 28.122 0 51-22.879 51-51 0-11.204-3.641-21.57-9.79-29.995z" fill="#e6e7e8"/><g><g><circle cx="69.878" cy="65.478" fill="#6dc9f7" r="50"/><path d="m69.878 15.478c-.503 0-1 .023-1.5.038 26.919.795 48.5 22.851 48.5 49.962s-21.581 49.167-48.5 49.962c.5.015.997.038 1.5.038 27.614 0 50-22.386 50-50s-22.385-50-50-50z" fill="#fff"/></g><path d="m111.976 29.281c-.295-2.56-2.015-4.771-4.366-5.825-1.735-.777-3.369-.779-4.839-.382v-11.273h-.01v-.004-.02h-11.272c.165-.611.261-1.251.261-1.915 0-4.341-3.768-7.802-8.212-7.29-2.56.295-4.771 2.015-5.825 4.366-.777 1.735-.779 3.369-.382 4.839h-11.273v.024h-.01v11.272c-1.47-.397-3.104-.395-4.839.382-2.351 1.054-4.071 3.266-4.366 5.825-.512 4.444 2.949 8.212 7.29 8.212.664 0 1.303-.096 1.915-.261v11.272h11.272c-.397-1.47-.395-3.104.382-4.839 1.053-2.351 3.265-4.071 5.825-4.366 4.444-.512 8.213 2.949 8.213 7.29 0 .664-.096 1.304-.261 1.915h11.272.02v-11.271c.611.165 1.251.261 1.915.261 4.341 0 7.802-3.768 7.29-8.212z" fill="#0089ef"/><path d="m89.625 34.906c-.005 0-.01 0-.015 0-.42-.007-.792-.274-.929-.672l-4.27-12.283-4.273 12.281c-.138.397-.509.665-.929.672-.408.021-.799-.25-.949-.643l-5.732-14.998c-.197-.517.061-1.095.577-1.292.515-.191 1.094.062 1.291.577l4.754 12.439 4.317-12.41c.14-.402.519-.672.944-.672.426 0 .805.27.944.672l4.314 12.411 4.754-12.438c.197-.517.775-.771 1.291-.577.516.197.774.775.577 1.292l-5.731 14.999c-.148.387-.52.642-.935.642z" fill="#fff"/><g><path d="m6.844 60.624h47.96v59.854h-47.96z" fill="#fa759e"/><path d="m55.308 54.189h-48.969c-1.777 0-3.218 1.441-3.218 3.218 0 1.777 1.441 3.218 3.218 3.218h48.969c1.777 0 3.218-1.441 3.218-3.218 0-1.778-1.44-3.218-3.218-3.218z" fill="#fa759e"/><g fill="#ffd7e5"><path d="m39.463 120.478h-17.279v-12.082c0-4.772 3.868-8.64 8.64-8.64 4.772 0 8.64 3.868 8.64 8.64v12.082z"/><g><path d="m12.518 69.312h7.392v7.392h-7.392z"/><path d="m27.128 69.312h7.392v7.392h-7.392z"/><path d="m41.738 69.312h7.392v7.392h-7.392z"/></g><g><path d="m12.518 83.922h7.392v7.392h-7.392z"/><path d="m27.128 83.922h7.392v7.392h-7.392z"/><path d="m41.738 83.922h7.392v7.392h-7.392z"/></g></g><g fill="#3a2c60"><path d="m111.083 35.488c1.458-1.749 2.15-4.034 1.886-6.322-.331-2.866-2.228-5.403-4.951-6.622-1.377-.618-2.801-.845-4.248-.679v-10.063c0-.121-.022-.236-.062-.344-.133-.396-.507-.681-.948-.681h-10.063c.035-.307.053-.612.053-.915 0-2.376-1.018-4.646-2.792-6.228-1.774-1.581-4.159-2.332-6.535-2.056-2.865.33-5.403 2.227-6.623 4.95-.617 1.378-.844 2.802-.678 4.248h-10.063c-.293 0-.557.133-.739.34-.168.179-.271.42-.271.685v2.925c-14.155 1.338-26.638 8.479-35.041 19.02-.068.06-.138.117-.189.198-.013.021-.014.046-.026.067-4.385 5.576-7.628 12.086-9.39 19.177h-14.064c-2.326 0-4.218 1.892-4.218 4.218 0 2.156 1.632 3.919 3.722 4.168v38.051c0 .553.448 1 1 1s1-.447 1-1v-38.001h45.96v57.854h-13.34v-11.083c0-5.315-4.324-9.64-9.64-9.64s-9.64 4.324-9.64 9.64v11.083h-13.339v-5.604c0-.553-.448-1-1-1s-1 .447-1 1v6.604c0 .553.448 1 1 1h47.96c.552 0 1-.447 1-1v-5.986c4.473 1.287 9.193 1.986 14.075 1.986 28.122 0 51-22.879 51-51-.001-11.204-3.647-21.566-9.796-29.99zm-72.62 72.908v11.083h-6.64v-18.649c3.741.491 6.64 3.692 6.64 7.566zm-15.279 0c0-3.873 2.899-7.074 6.64-7.566v18.649h-6.64zm85.648-13.238c-4.456-2.681-9.841-4.833-15.834-6.378 1.766-6.709 2.79-14.281 2.87-22.302h22.986c-.218 10.764-3.916 20.685-10.022 28.68zm-49.306-37.752c0-2.326-1.892-4.218-4.217-4.218h-8.654c.47-3.702 1.146-7.236 2.004-10.545 5.129 1.186 10.659 1.932 16.39 2.204v3.656c0 .553.448 1 1 1h2.83v14.975h-13.075v-2.905c2.09-.248 3.722-2.01 3.722-4.167zm-1.62-21.705c1.784 2 4.433 3.05 7.142 2.739v4.405c-5.554-.268-10.905-.99-15.865-2.13 3.389-11.764 9.114-20.396 15.865-23.226v4.375c-1.447-.166-2.87.062-4.248.678-2.724 1.22-4.621 3.757-4.951 6.623-.273 2.381.476 4.763 2.057 6.536zm20.38 12.542c-.339-1.259-.277-2.457.145-3.648 3.859-.329 7.597-.878 11.161-1.634.737 1.056 1.149 2.32 1.149 3.628 0 .542-.076 1.099-.226 1.654-.081.301-.018.622.171.869s.483.392.794.392h1.07c.799 4.712 1.255 9.74 1.307 14.975h-22.979v-14.975h6.442c.311 0 .604-.145.794-.392.189-.247.253-.568.172-.869zm1.339-5.753c1.03-1.211 2.457-2.018 4.017-2.198 1.522-.172 2.986.182 4.22.993-2.658.519-5.41.923-8.237 1.205zm-23.821 23.989h13.075v19.519c-4.486.045-8.869.387-13.075.997zm0 22.536c4.195-.621 8.579-.971 13.075-1.017v26.436c-4.872-.41-9.37-3.809-13.075-9.308zm15.074-1.023c6.926.069 13.604.846 19.697 2.25-4.015 13.935-11.305 23.477-19.697 24.184zm0-1.999v-19.514h22.988c-.078 7.871-1.066 15.291-2.763 21.837-6.266-1.452-13.124-2.254-20.225-2.323zm24.978-21.514c-.052-5.222-.506-10.248-1.305-14.975h8.219c.552 0 1-.447 1-1v-10.064c2.115.243 4.189-.354 5.848-1.575 5.635 7.804 9.031 17.322 9.238 27.614zm-29.2-40.612c.247-.189.392-.482.392-.794v-10.296h10.282c.311 0 .604-.145.794-.392.189-.247.252-.568.171-.869-.389-1.442-.281-2.806.33-4.169.933-2.083 2.859-3.532 5.026-3.782 1.842-.207 3.608.345 4.975 1.563 1.349 1.203 2.123 2.929 2.123 4.734 0 .542-.076 1.099-.226 1.654-.081.301-.018.622.171.869s.483.392.794.392h10.282v10.296c0 .312.145.604.392.794.247.188.568.251.868.172 1.442-.391 2.806-.283 4.17.33 2.083.932 3.532 2.857 3.781 5.025.212 1.841-.343 3.607-1.562 4.976-1.564 1.754-3.98 2.549-6.389 1.896-.302-.079-.622-.018-.869.172-.247.189-.392.482-.392.794v10.271h-9.084c.035-.307.053-.612.053-.915 0-2.376-1.018-4.646-2.792-6.228-1.773-1.581-4.16-2.329-6.535-2.056-2.865.33-5.403 2.227-6.624 4.95-.617 1.378-.844 2.802-.678 4.248h-9.064v-10.27c0-.312-.145-.604-.392-.794-.247-.189-.568-.25-.869-.172-2.41.652-4.825-.143-6.389-1.896-1.219-1.368-1.774-3.135-1.562-4.976.25-2.168 1.699-4.094 3.781-5.026 1.364-.611 2.727-.721 4.17-.329.304.078.626.017.872-.172zm-5.144-6.657c-6.044 4.041-11.091 12.328-14.215 23.043-5.713-1.466-10.846-3.499-15.106-6.025 7.297-8.79 17.6-14.992 29.321-17.018zm-30.578 18.597c4.455 2.678 9.837 4.828 15.827 6.369-.911 3.46-1.623 7.151-2.112 11.013h-22.185c1.658-6.392 4.574-12.279 8.47-17.382zm-24.595 23.817c-1.223 0-2.218-.995-2.218-2.218s.995-2.218 2.218-2.218h48.969c1.223 0 2.217.995 2.217 2.218s-.995 2.218-2.217 2.218zm49.465 48.691c1.767 2.242 3.681 4.077 5.706 5.434-1.943-.338-3.847-.791-5.706-1.35zm22.431 5.436c6.048-4.039 11.102-12.326 14.228-23.046 5.716 1.471 10.853 3.507 15.114 6.037-7.302 8.791-17.617 14.985-29.342 17.009z"/><path d="m12.518 77.703h7.392c.552 0 1-.447 1-1v-7.392c0-.553-.448-1-1-1h-7.392c-.552 0-1 .447-1 1v7.392c0 .553.448 1 1 1zm1-7.391h5.392v5.392h-5.392z"/><path d="m27.128 77.703h7.392c.552 0 1-.447 1-1v-7.392c0-.553-.448-1-1-1h-7.392c-.552 0-1 .447-1 1v7.392c0 .553.448 1 1 1zm1-7.391h5.392v5.392h-5.392z"/><path d="m41.738 77.703h7.392c.552 0 1-.447 1-1v-7.392c0-.553-.448-1-1-1h-7.392c-.552 0-1 .447-1 1v7.392c0 .553.448 1 1 1zm1-7.391h5.392v5.392h-5.392z"/><path d="m11.518 91.313c0 .553.448 1 1 1h7.392c.552 0 1-.447 1-1v-7.392c0-.553-.448-1-1-1h-7.392c-.552 0-1 .447-1 1zm2-6.391h5.392v5.392h-5.392z"/><path d="m26.128 91.313c0 .553.448 1 1 1h7.392c.552 0 1-.447 1-1v-7.392c0-.553-.448-1-1-1h-7.392c-.552 0-1 .447-1 1zm2-6.391h5.392v5.392h-5.392z"/><path d="m40.738 91.313c0 .553.448 1 1 1h7.392c.552 0 1-.447 1-1v-7.392c0-.553-.448-1-1-1h-7.392c-.552 0-1 .447-1 1zm2-6.391h5.392v5.392h-5.392z"/><path d="m6.844 111.5c.552 0 1-.447 1-1v-7.375c0-.553-.448-1-1-1s-1 .447-1 1v7.375c0 .553.448 1 1 1z"/></g></g></g></g></svg>